<svg xmlns="http://www.w3.org/2000/svg" width="378.92" height="35" viewBox="0 0 378.92 35"><rect class="svg__rect" x="0" y="0" width="162.12" height="35" fill="#C13B3A"/><rect class="svg__rect" x="160.12" y="0" width="218.8" height="35" fill="#5593C7"/><path class="svg__text" d="M19.57 22L14.22 22L14.22 13.47L15.70 13.47L15.70 20.82L19.57 20.82L19.57 22ZM25.26 22L23.79 22L23.79 13.47L25.26 13.47L25.26 22ZM29.80 18.19L29.80 18.19L29.80 17.39Q29.80 16.19 30.23 15.27Q30.66 14.35 31.46 13.85Q32.26 13.35 33.31 13.35L33.31 13.35Q34.72 13.35 35.58 14.12Q36.44 14.89 36.58 16.29L36.58 16.29L35.11 16.29Q35.00 15.37 34.57 14.96Q34.14 14.55 33.31 14.55L33.31 14.55Q32.34 14.55 31.82 15.26Q31.30 15.96 31.29 17.33L31.29 17.33L31.29 18.09Q31.29 19.47 31.79 20.20Q32.28 20.92 33.24 20.92L33.24 20.92Q34.11 20.92 34.55 20.53Q34.99 20.14 35.11 19.22L35.11 19.22L36.58 19.22Q36.45 20.59 35.57 21.35Q34.70 22.12 33.24 22.12L33.24 22.12Q32.22 22.12 31.44 21.63Q30.66 21.15 30.24 20.26Q29.82 19.37 29.80 18.19ZM46.47 22L40.89 22L40.89 13.47L46.43 13.47L46.43 14.66L42.38 14.66L42.38 17.02L45.88 17.02L45.88 18.19L42.38 18.19L42.38 20.82L46.47 20.82L46.47 22ZM52.15 22L50.67 22L50.67 13.47L52.15 13.47L55.97 19.54L55.97 13.47L57.44 13.47L57.44 22L55.95 22L52.15 15.95L52.15 22ZM61.74 19.42L61.74 19.42L63.23 19.42Q63.23 20.15 63.71 20.55Q64.19 20.95 65.08 20.95L65.08 20.95Q65.86 20.95 66.25 20.63Q66.64 20.32 66.64 19.80L66.64 19.80Q66.64 19.24 66.24 18.94Q65.84 18.63 64.81 18.32Q63.78 18.01 63.17 17.63L63.17 17.63Q62.01 16.90 62.01 15.72L62.01 15.72Q62.01 14.69 62.85 14.02Q63.69 13.35 65.03 13.35L65.03 13.35Q65.92 13.35 66.62 13.68Q67.31 14.01 67.71 14.61Q68.11 15.22 68.11 15.96L68.11 15.96L66.64 15.96Q66.64 15.29 66.22 14.91Q65.80 14.54 65.02 14.54L65.02 14.54Q64.29 14.54 63.89 14.85Q63.49 15.16 63.49 15.71L63.49 15.71Q63.49 16.18 63.92 16.50Q64.36 16.81 65.35 17.10Q66.35 17.40 66.95 17.78Q67.56 18.16 67.84 18.65Q68.12 19.13 68.12 19.79L68.12 19.79Q68.12 20.86 67.30 21.49Q66.48 22.12 65.08 22.12L65.08 22.12Q64.16 22.12 63.38 21.77Q62.60 21.43 62.17 20.83Q61.74 20.22 61.74 19.42ZM77.98 22L72.41 22L72.41 13.47L77.94 13.47L77.94 14.66L73.89 14.66L73.89 17.02L77.39 17.02L77.39 18.19L73.89 18.19L73.89 20.82L77.98 20.82L77.98 22ZM84.64 22L82.18 22L82.18 13.47L84.70 13.47Q85.83 13.47 86.71 13.97Q87.58 14.48 88.06 15.40Q88.54 16.33 88.54 17.52L88.54 17.52L88.54 17.95Q88.54 19.16 88.06 20.08Q87.58 21.00 86.68 21.50Q85.79 22 84.64 22L84.64 22ZM83.66 14.66L83.66 20.82L84.63 20.82Q85.80 20.82 86.42 20.09Q87.04 19.36 87.06 17.99L87.06 17.99L87.06 17.52Q87.06 16.13 86.45 15.40Q85.85 14.66 84.70 14.66L84.70 14.66L83.66 14.66ZM98.85 19.16L98.85 19.16L98.85 13.47L100.33 13.47L100.33 19.18Q100.33 20.03 100.76 20.48Q101.19 20.93 102.04 20.93L102.04 20.93Q103.75 20.93 103.75 19.13L103.75 19.13L103.75 13.47L105.22 13.47L105.22 19.17Q105.22 20.53 104.35 21.32Q103.48 22.12 102.04 22.12L102.04 22.12Q100.57 22.12 99.71 21.33Q98.85 20.55 98.85 19.16ZM111.28 22L109.80 22L109.80 13.47L111.28 13.47L115.09 19.54L115.09 13.47L116.56 13.47L116.56 22L115.08 22L111.28 15.95L111.28 22ZM123.76 22L121.30 22L121.30 13.47L123.82 13.47Q124.95 13.47 125.83 13.97Q126.71 14.48 127.19 15.40Q127.67 16.33 127.67 17.52L127.67 17.52L127.67 17.95Q127.67 19.16 127.18 20.08Q126.70 21.00 125.81 21.50Q124.91 22 123.76 22L123.76 22ZM122.79 14.66L122.79 20.82L123.75 20.82Q124.92 20.82 125.54 20.09Q126.17 19.36 126.18 17.99L126.18 17.99L126.18 17.52Q126.18 16.13 125.57 15.40Q124.97 14.66 123.82 14.66L123.82 14.66L122.79 14.66ZM137.71 22L132.13 22L132.13 13.47L137.67 13.47L137.67 14.66L133.61 14.66L133.61 17.02L137.12 17.02L137.12 18.19L133.61 18.19L133.61 20.82L137.71 20.82L137.71 22ZM143.39 22L141.90 22L141.90 13.47L144.90 13.47Q146.38 13.47 147.18 14.13Q147.99 14.79 147.99 16.05L147.99 16.05Q147.99 16.90 147.57 17.48Q147.16 18.06 146.42 18.37L146.42 18.37L148.34 21.92L148.34 22L146.75 22L145.04 18.71L143.39 18.71L143.39 22ZM143.39 14.66L143.39 17.52L144.91 17.52Q145.66 17.52 146.08 17.15Q146.50 16.77 146.50 16.11L146.50 16.11Q146.50 15.43 146.11 15.05Q145.72 14.68 144.95 14.66L144.95 14.66L143.39 14.66Z" fill="#FFFFFF"/><path class="svg__text" d="M175.73 22L173.30 22L177.01 13.60L179.35 13.60L183.07 22L180.60 22L179.94 20.37L176.39 20.37L175.73 22ZM178.16 15.93L177.08 18.61L179.24 18.61L178.16 15.93ZM189.60 22L187.22 22L187.22 13.60L191.07 13.60Q192.20 13.60 193.04 13.98Q193.88 14.35 194.34 15.06Q194.80 15.76 194.80 16.71L194.80 16.71Q194.80 17.66 194.34 18.35Q193.88 19.05 193.04 19.42Q192.20 19.80 191.07 19.80L191.07 19.80L189.60 19.80L189.60 22ZM189.60 15.47L189.60 17.93L190.92 17.93Q191.65 17.93 192.02 17.61Q192.40 17.29 192.40 16.71L192.40 16.71Q192.40 16.12 192.02 15.80Q191.65 15.47 190.92 15.47L190.92 15.47L189.60 15.47ZM200.97 22L198.54 22L202.25 13.60L204.59 13.60L208.31 22L205.84 22L205.18 20.37L201.63 20.37L200.97 22ZM203.41 15.93L202.32 18.61L204.48 18.61L203.41 15.93ZM212.04 17.80L212.04 17.80Q212.04 16.54 212.63 15.54Q213.23 14.55 214.28 13.99Q215.34 13.43 216.65 13.43L216.65 13.43Q217.81 13.43 218.73 13.84Q219.65 14.25 220.27 15.02L220.27 15.02L218.76 16.39Q217.94 15.40 216.78 15.40L216.78 15.40Q216.09 15.40 215.56 15.70Q215.02 16 214.73 16.54Q214.43 17.09 214.43 17.80L214.43 17.80Q214.43 18.51 214.73 19.05Q215.02 19.60 215.56 19.90Q216.09 20.20 216.78 20.20L216.78 20.20Q217.94 20.20 218.76 19.22L218.76 19.22L220.27 20.58Q219.66 21.35 218.73 21.76Q217.81 22.17 216.65 22.17L216.65 22.17Q215.34 22.17 214.28 21.61Q213.23 21.05 212.63 20.05Q212.04 19.06 212.04 17.80ZM227.18 22L224.80 22L224.80 13.60L227.18 13.60L227.18 16.76L230.42 16.76L230.42 13.60L232.80 13.60L232.80 22L230.42 22L230.42 18.72L227.18 18.72L227.18 22ZM244.70 22L237.96 22L237.96 13.60L244.55 13.60L244.55 15.44L240.31 15.44L240.31 16.85L244.05 16.85L244.05 18.63L240.31 18.63L240.31 20.17L244.70 20.17L244.70 22ZM257.34 16.17L255.57 15.19Q256.06 14.37 256.95 13.90Q257.84 13.43 259.05 13.43L259.05 13.43Q260.01 13.43 260.75 13.74Q261.48 14.05 261.90 14.64Q262.32 15.22 262.32 15.99L262.32 15.99Q262.32 16.67 262.02 17.28Q261.72 17.89 260.89 18.65L260.89 18.65L259.30 20.11L262.54 20.11L262.54 22L256.00 22L256.00 20.51L259.15 17.57Q259.60 17.14 259.76 16.83Q259.91 16.53 259.91 16.22L259.91 16.22Q259.91 15.81 259.64 15.58Q259.36 15.35 258.84 15.35L258.84 15.35Q258.37 15.35 257.98 15.56Q257.59 15.77 257.34 16.17L257.34 16.17ZM266.63 20.75L266.63 20.75Q266.63 20.15 267.02 19.78Q267.41 19.41 268.01 19.41L268.01 19.41Q268.60 19.41 268.99 19.78Q269.37 20.15 269.37 20.75L269.37 20.75Q269.37 21.34 268.98 21.72Q268.59 22.11 268.01 22.11L268.01 22.11Q267.43 22.11 267.03 21.72Q266.63 21.34 266.63 20.75ZM273.60 17.80L273.60 17.80Q273.60 16.45 274.07 15.46Q274.54 14.46 275.39 13.95Q276.23 13.43 277.30 13.43L277.30 13.43Q278.37 13.43 279.21 13.95Q280.05 14.46 280.53 15.46Q281.00 16.45 281.00 17.80L281.00 17.80Q281.00 19.15 280.53 20.15Q280.05 21.14 279.21 21.65Q278.38 22.17 277.30 22.17L277.30 22.17Q276.23 22.17 275.39 21.65Q274.54 21.14 274.07 20.15Q273.60 19.16 273.60 17.80ZM275.99 17.80L275.99 17.80Q275.99 19.06 276.34 19.64Q276.69 20.22 277.30 20.22L277.30 20.22Q277.91 20.22 278.26 19.64Q278.62 19.06 278.62 17.80L278.62 17.80Q278.62 16.54 278.26 15.96Q277.91 15.38 277.30 15.38L277.30 15.38Q276.69 15.38 276.34 15.96Q275.99 16.54 275.99 17.80ZM299.09 22L292.70 22L292.70 13.60L295.08 13.60L295.08 20.11L299.09 20.11L299.09 22ZM305.89 22L303.51 22L303.51 13.60L305.89 13.60L305.89 22ZM310.63 17.80L310.63 17.80Q310.63 16.54 311.23 15.54Q311.83 14.55 312.88 13.99Q313.93 13.43 315.25 13.43L315.25 13.43Q316.40 13.43 317.33 13.84Q318.25 14.25 318.86 15.02L318.86 15.02L317.35 16.39Q316.54 15.40 315.37 15.40L315.37 15.40Q314.69 15.40 314.15 15.70Q313.62 16 313.32 16.54Q313.03 17.09 313.03 17.80L313.03 17.80Q313.03 18.51 313.32 19.05Q313.62 19.60 314.15 19.90Q314.69 20.20 315.37 20.20L315.37 20.20Q316.54 20.20 317.35 19.22L317.35 19.22L318.86 20.58Q318.26 21.35 317.33 21.76Q316.40 22.17 315.25 22.17L315.25 22.17Q313.93 22.17 312.88 21.61Q311.83 21.05 311.23 20.05Q310.63 19.06 310.63 17.80ZM330.14 22L323.40 22L323.40 13.60L329.99 13.60L329.99 15.44L325.76 15.44L325.76 16.85L329.49 16.85L329.49 18.63L325.76 18.63L325.76 20.17L330.14 20.17L330.14 22ZM337.28 22L334.95 22L334.95 13.60L336.91 13.60L340.61 18.07L340.61 13.60L342.94 13.60L342.94 22L340.99 22L337.28 17.52L337.28 22ZM347.52 21.24L347.52 21.24L348.30 19.49Q348.86 19.86 349.60 20.09Q350.35 20.32 351.07 20.32L351.07 20.32Q352.43 20.32 352.44 19.64L352.44 19.64Q352.44 19.28 352.05 19.11Q351.66 18.93 350.79 18.74L350.79 18.74Q349.84 18.53 349.21 18.30Q348.57 18.06 348.12 17.55Q347.66 17.03 347.66 16.16L347.66 16.16Q347.66 15.39 348.08 14.77Q348.50 14.15 349.34 13.79Q350.17 13.43 351.38 13.43L351.38 13.43Q352.20 13.43 353.01 13.62Q353.82 13.80 354.43 14.17L354.43 14.17L353.70 15.93Q352.50 15.28 351.37 15.28L351.37 15.28Q350.66 15.28 350.34 15.49Q350.01 15.70 350.01 16.04L350.01 16.04Q350.01 16.37 350.40 16.54Q350.78 16.71 351.63 16.89L351.63 16.89Q352.59 17.10 353.22 17.33Q353.85 17.56 354.31 18.07Q354.78 18.58 354.78 19.46L354.78 19.46Q354.78 20.21 354.36 20.83Q353.94 21.44 353.10 21.80Q352.26 22.17 351.06 22.17L351.06 22.17Q350.04 22.17 349.08 21.92Q348.11 21.67 347.52 21.24ZM366.10 22L359.35 22L359.35 13.60L365.94 13.60L365.94 15.44L361.71 15.44L361.71 16.85L365.44 16.85L365.44 18.63L361.71 18.63L361.71 20.17L366.10 20.17L366.10 22Z" fill="#FFFFFF" x="173.12"/></svg>